<svg width="20" height="18" viewBox="0 0 20 18" fill="none" xmlns="http://www.w3.org/2000/svg">
<g clip-path="url(#clip0_40_28)">
<path d="M10.2196 14.8147H19.1816C19.5271 14.8147 19.8034 14.552 19.8034 14.2066C19.8034 13.8611 19.5271 13.5916 19.1816 13.5916H10.2196C9.8741 13.5916 9.60461 13.8611 9.60461 14.2066C9.60461 14.552 9.8741 14.8147 10.2196 14.8147Z" fill="black"/>
<path d="M3.79348 18C5.85951 18 7.58006 16.2795 7.58006 14.2066C7.58006 12.1267 5.85951 10.4131 3.79348 10.4131C1.70671 10.4131 0 12.1336 0 14.2066C0 16.2795 1.71363 18 3.79348 18ZM3.33744 16.2795C3.1716 16.2795 3.06105 16.1827 2.94358 16.0515L1.87946 14.8008C1.81037 14.704 1.77582 14.6142 1.77582 14.4761C1.77582 14.2481 1.96239 14.0545 2.19041 14.0545C2.34242 14.0545 2.45298 14.1236 2.55663 14.2549L3.32361 15.2016L4.98197 12.5551C5.07871 12.4031 5.20999 12.3202 5.3551 12.3202C5.59004 12.3202 5.7835 12.5067 5.7835 12.714C5.7835 12.8315 5.74896 12.9282 5.66604 13.0526L3.75203 16.0446C3.65529 16.1966 3.51709 16.2795 3.33744 16.2795Z" fill="black"/>
<path d="M10.2196 4.4361H19.1816C19.5271 4.4361 19.8034 4.17352 19.8034 3.82112C19.8034 3.47562 19.5271 3.21306 19.1816 3.21306H10.2196C9.8741 3.21306 9.60461 3.47562 9.60461 3.82112C9.60461 4.17352 9.8741 4.4361 10.2196 4.4361Z" fill="black"/>
<path d="M3.79348 7.61461C5.85951 7.61461 7.58006 5.89407 7.58006 3.81421C7.58006 1.74127 5.85951 0.0276413 3.79348 0.0276413C1.70671 0.0276413 0 1.74127 0 3.81421C0 5.88716 1.71363 7.61461 3.79348 7.61461ZM3.33744 5.88716C3.1716 5.88716 3.06105 5.79733 2.94358 5.66605L1.87946 4.40845C1.81037 4.31863 1.77582 4.2288 1.77582 4.0906C1.77582 3.85567 1.96239 3.6691 2.19041 3.6691C2.34242 3.6691 2.45298 3.7313 2.55663 3.86258L3.32361 4.80923L4.98197 2.16968C5.07871 2.01766 5.20999 1.93475 5.3551 1.93475C5.59004 1.93475 5.7835 2.1144 5.7835 2.32861C5.7835 2.43916 5.74896 2.5359 5.66604 2.66027L3.75203 5.65913C3.65529 5.80423 3.51709 5.88716 3.33744 5.88716Z" fill="black"/>
</g>
<defs>
<clipPath id="clip0_40_28">
<rect width="19.8034" height="18" fill="white"/>
</clipPath>
</defs>
</svg>
