<svg width="18" height="18" viewBox="0 0 18 18" fill="none" xmlns="http://www.w3.org/2000/svg">
<g clip-path="url(#clip0_83_590)">
<path d="M8.98964 17.9861C13.954 17.9861 17.9861 13.9609 17.9861 8.99654C17.9861 4.03222 13.954 0 8.98964 0C4.02531 0 0 4.03222 0 8.99654C0 13.9609 4.02531 17.9861 8.98964 17.9861ZM8.98964 16.7019C4.72958 16.7019 1.28423 13.2566 1.28423 8.99654C1.28423 4.73648 4.72958 1.29114 8.98964 1.29114C13.2497 1.29114 16.695 4.73648 16.695 8.99654C16.695 13.2566 13.2497 16.7019 8.98964 16.7019Z" fill="#FF4646"/>
<path d="M8.97584 10.5984C9.34868 10.5984 9.56962 10.3774 9.57652 9.97007L9.687 5.2267C9.6939 4.82624 9.38319 4.52934 8.96892 4.52934C8.54775 4.52934 8.25776 4.81933 8.26468 5.2198L8.36824 9.97007C8.37514 10.3705 8.59608 10.5984 8.97584 10.5984ZM8.97584 13.4085C9.45224 13.4085 9.8527 13.0288 9.8527 12.5593C9.8527 12.0828 9.45914 11.71 8.97584 11.71C8.49942 11.71 8.10587 12.0897 8.10587 12.5593C8.10587 13.0219 8.50632 13.4085 8.97584 13.4085Z" fill="#FF4646"/>
</g>
<defs>
<clipPath id="clip0_83_590">
<rect width="17.9861" height="18" fill="white"/>
</clipPath>
</defs>
</svg>
