<svg width="21" height="18" viewBox="0 0 21 18" fill="none" xmlns="http://www.w3.org/2000/svg">
<path d="M0.72653 1.4449H12.5878C12.9959 1.4449 13.3225 1.13469 13.3225 0.72653C13.3225 0.318368 12.9959 0 12.5878 0H0.72653C0.310204 0 0 0.318368 0 0.72653C0 1.13469 0.310204 1.4449 0.72653 1.4449ZM15.551 1.4449H20.2612C20.6694 1.4449 20.9959 1.13469 20.9959 0.72653C20.9959 0.318368 20.6694 0 20.2612 0H15.551C15.1429 0 14.8327 0.318368 14.8327 0.72653C14.8327 1.13469 15.1429 1.4449 15.551 1.4449ZM0.72653 6.96327H3.29797C3.71429 6.96327 4.03265 6.6449 4.03265 6.23674C4.03265 5.82858 3.71429 5.51021 3.29797 5.51021H0.72653C0.310204 5.51021 0 5.82858 0 6.23674C0 6.6449 0.310204 6.96327 0.72653 6.96327ZM6.26939 6.96327H11.7796C12.1878 6.96327 12.5143 6.6449 12.5143 6.23674C12.5143 5.82858 12.1878 5.51021 11.7796 5.51021H6.26939C5.86123 5.51021 5.54286 5.82858 5.54286 6.23674C5.54286 6.6449 5.86123 6.96327 6.26939 6.96327ZM14.7429 6.96327H20.2612C20.6694 6.96327 20.9959 6.6449 20.9959 6.23674C20.9959 5.82858 20.6694 5.51021 20.2612 5.51021H14.7429C14.3347 5.51021 14.0245 5.82858 14.0245 6.23674C14.0245 6.6449 14.3347 6.96327 14.7429 6.96327ZM0.734694 12.449H5.43673C5.85307 12.449 6.16326 12.1306 6.16326 11.7225C6.16326 11.3143 5.85307 11.0041 5.43673 11.0041H0.734694C0.318368 11.0041 0 11.3143 0 11.7225C0 12.1306 0.318368 12.449 0.734694 12.449ZM8.40817 12.449H20.2694C20.6776 12.449 20.9959 12.1306 20.9959 11.7225C20.9959 11.3143 20.6776 11.0041 20.2694 11.0041H8.40817C7.99183 11.0041 7.67346 11.3143 7.67346 11.7225C7.67346 12.1306 7.99183 12.449 8.40817 12.449ZM0.72653 17.9836H11.6735C12.0816 17.9836 12.4082 17.6735 12.4082 17.2652C12.4082 16.8489 12.0816 16.5388 11.6735 16.5388H0.72653C0.310204 16.5388 0 16.8489 0 17.2652C0 17.6735 0.310204 17.9836 0.72653 17.9836Z" fill="black" fill-opacity="0.85"/>
</svg>
