<svg width="19" height="18" viewBox="0 0 19 18" fill="none" xmlns="http://www.w3.org/2000/svg">
<path d="M13.384 1.90668L12.1243 3.16719H2.79674C1.80504 3.16719 1.26282 3.69515 1.26282 4.72253V15.1817C1.26282 16.2092 1.80504 16.7371 2.79674 16.7371H13.2916C14.2834 16.7371 14.8255 16.2092 14.8255 15.1817V5.92651L16.0884 4.66189V15.2532C16.0884 17.0796 15.1539 18 13.3131 18H2.77534C0.934629 18 0 17.0796 0 15.2532V4.65831C0 2.83186 0.934629 1.90438 2.77534 1.90438H13.3131C13.3375 1.90438 13.3616 1.90454 13.384 1.90668Z" fill="black"/>
<path d="M6.28558 11.9498L7.94079 11.215L16.5237 2.6321L15.3893 1.50484L6.81353 10.0877L6.03586 11.693C5.96452 11.8285 6.13575 12.014 6.28558 11.9498ZM17.1729 1.99712L17.7936 1.35502C18.0933 1.04823 18.1005 0.655823 17.8079 0.363314L17.6295 0.184946C17.3583 -0.0861667 16.9517 -0.0504941 16.6663 0.234889L16.0385 0.855593L17.1729 1.99712Z" fill="black"/>
</svg>
