<svg width="22" height="22" viewBox="0 0 22 22" fill="none" xmlns="http://www.w3.org/2000/svg">
<path d="M16.6667 0H5.33333C2.38781 0 0 2.38781 0 5.33333V16.6667C0 19.6122 2.38781 22 5.33333 22H16.6667C19.6122 22 22 19.6122 22 16.6667V5.33333C22 2.38781 19.6122 0 16.6667 0Z" fill="#00BD79"/>
<path d="M9.73555 15.4573C9.42822 15.4573 9.12155 15.3407 8.88688 15.106L4.90155 11.1207C4.43288 10.652 4.43288 9.892 4.90155 9.42334C5.37022 8.95534 6.13022 8.95534 6.59888 9.42334L9.73555 12.5607L15.4015 6.89467C15.8709 6.42667 16.6309 6.42667 17.0989 6.89467C17.5675 7.36334 17.5675 8.12334 17.0989 8.592L10.5842 15.106C10.3495 15.34 10.0429 15.4573 9.73555 15.4573Z" fill="white"/>
</svg>
