<svg width="14" height="12" viewBox="0 0 14 12" fill="none" xmlns="http://www.w3.org/2000/svg">
<g clip-path="url(#clip0_7_154)">
<path d="M14 5.9969C14 5.82964 13.9357 5.67476 13.8072 5.54466L8.78799 0.21683C8.63608 0.0557563 8.49584 0 8.34392 0C8.02839 0 7.78299 0.247805 7.78299 0.582343C7.78299 0.743418 7.83557 0.898296 7.94074 1.00981L9.98583 3.20909L12.7145 5.87919L12.8489 5.52607L10.5526 5.39597H0.560936C0.233723 5.39597 0 5.64377 0 5.9969C0 6.34383 0.233723 6.59784 0.560936 6.59784H10.5526L12.8489 6.46153L12.7145 6.11461L9.98583 8.78472L7.94074 10.9778C7.84141 11.0893 7.78299 11.2504 7.78299 11.4115C7.78299 11.746 8.02839 11.9938 8.34392 11.9938C8.49584 11.9938 8.63023 11.9319 8.75878 11.8079L13.8072 6.44295C13.9357 6.31905 14 6.16417 14 5.9969Z" fill="black" fill-opacity="0.85"/>
</g>
<defs>
<clipPath id="clip0_7_154">
<rect width="14" height="12" fill="white"/>
</clipPath>
</defs>
</svg>
